<svg height="512" viewBox="0 0 512 512" width="512" xmlns="http://www.w3.org/2000/svg" xmlns:xlink="http://www.w3.org/1999/xlink"><linearGradient id="a" gradientUnits="userSpaceOnUse" x1="1.615" x2="512.894" y1="510.385" y2="-.894" data-name="New Gradient Swatch 1"><stop offset="0" stop-color="#003f8a"/><stop offset=".518" stop-color="#00d7df"/><stop offset="1" stop-color="#006df0"/></linearGradient><linearGradient id="c" x1="-99.79" x2="411.488" xlink:href="#a" y1="408.98" y2="-102.299"/><linearGradient id="d" x1="33.718" x2="544.997" xlink:href="#a" y1="542.488" y2="31.209"/><linearGradient id="e" x1="-32.419" x2="478.86" xlink:href="#a" y1="476.351" y2="-34.927"/><g><path d="m431.362 80.638a248 248 0 1 0 -350.724 350.724 248 248 0 1 0 350.724-350.724zm-11.313 339.411a232 232 0 0 1 -328.1-328.1 232 232 0 0 1 328.1 328.1z" fill="url(#a)"/><path d="m256 48c-114.691 0-208 93.309-208 208s93.309 208 208 208 208-93.309 208-208-93.309-208-208-208zm0 400c-105.869 0-192-86.131-192-192s86.131-192 192-192 192 86.131 192 192-86.131 192-192 192z" fill="url(#a)"/><path d="m256 96a8 8 0 0 0 0-16 176.046 176.046 0 0 0 -162.775 108.95 8 8 0 1 0 14.791 6.1 160.053 160.053 0 0 1 147.984-99.05z" fill="url(#c)"/><path d="m336.206 176h-32a16.019 16.019 0 0 0 -16 16v128a16.019 16.019 0 0 0 16 16h32a16.019 16.019 0 0 0 16-16v-128a16.019 16.019 0 0 0 -16-16zm0 144h-32l-.01-128h32.01z" fill="url(#d)"/><path d="m273.088 242.691-88.047-64.23q-.191-.14-.389-.267a16 16 0 0 0 -24.652 13.459v128.694a16 16 0 0 0 24.652 13.459q.2-.127.389-.267l88.047-64.23a16 16 0 0 0 0-26.618zm-9.271 13.576-87.817 64.063v-128.66l87.817 64.063q.191.139.389.267-.198.127-.389.267z" fill="url(#e)"/></g></svg>